# xmcd
#
# Track frame offsets: 
#        150
#        15612
#        34632
#        48737
#        60425
#        74912
#        88762
#        104762
#        120825
#        135787
#        150862
#        166687
#
# Disc length: 2465 seconds
#
# Revision: 2
# Processed by: cddbd v1.5PL3 Copyright (c) Steve Scherf et al.
# Submitted via: ExactAudioCopy v0.95a3
#
DISCID=90099f0c
DTITLE=George Jones - The Gospel Collection [CD2]
DYEAR=2003
DGENRE=Gospel
TTITLE0=Peace In The Valley
TTITLE1=What A Friend We Have In Jesus
TTITLE2=Softly And Tenderly
TTITLE3=Lily Of The Valley
TTITLE4=The Old Rugged Cross
TTITLE5=Leaning On The Everlasting Arms
TTITLE6=Family Bible
TTITLE7=Mansion Over The Hilltop (Featuring Vestal Goodman)
TTITLE8=If I Could Hear My Mother Pray Again
TTITLE9=How Beautiful Heaven Must Be
TTITLE10=Jesus, Hold My Hand
TTITLE11=I Know A Man Who Can (Featuring Sheri Copeland And Barry Smit
TTITLE11=h)
EXTD=
EXTT0=
EXTT1=
EXTT2=
EXTT3=
EXTT4=
EXTT5=
EXTT6=
EXTT7=
EXTT8=
EXTT9=
EXTT10=
EXTT11=
PLAYORDER=
